<svg width="500" height="373" viewBox="0 0 500 373" fill="none" xmlns="http://www.w3.org/2000/svg">
<path d="M500 327.445H0V327.695H500V327.445Z" fill="#EBEBEB"/>
<path d="M449.902 343.539H428.223V343.789H449.902V343.539Z" fill="#EBEBEB"/>
<path d="M344.668 338.352H310.559V338.602H344.668V338.352Z" fill="#EBEBEB"/>
<path d="M441.111 334.258H396.586V334.508H441.111V334.258Z" fill="#EBEBEB"/>
<path d="M173.017 339.297H161.879V339.547H173.017V339.297Z" fill="#EBEBEB"/>
<path d="M152.975 339.297H114.586V339.547H152.975V339.297Z" fill="#EBEBEB"/>
<path d="M94.0036 335.078H66.3086V335.328H94.0036V335.078Z" fill="#EBEBEB"/>
<path d="M237.014 282.848H43.915C40.768 282.848 38.207 280.287 38.207 277.14V5.708C38.207 2.561 40.768 0 43.915 0H237.014C240.16 0 242.721 2.561 242.721 5.708V277.14C242.721 280.287 240.16 282.848 237.014 282.848ZM43.915 0.250999C40.905 0.250999 38.457 2.699 38.457 5.709V277.141C38.457 280.151 40.905 282.599 43.915 282.599H237.014C240.023 282.599 242.471 280.151 242.471 277.141V5.708C242.471 2.699 240.023 0.25 237.014 0.25L43.915 0.250999Z" fill="#EBEBEB"/>
<path d="M453.309 282.848H260.211C257.064 282.848 254.504 280.287 254.504 277.14V5.708C254.504 2.561 257.065 0 260.211 0H453.309C456.457 0 459.017 2.561 459.017 5.708V277.14C459.018 280.287 456.457 282.848 453.309 282.848ZM260.211 0.250999C257.202 0.250999 254.754 2.699 254.754 5.709V277.141C254.754 280.151 257.202 282.599 260.211 282.599H453.309C456.319 282.599 458.767 280.151 458.767 277.141V5.708C458.767 2.699 456.319 0.25 453.309 0.25L260.211 0.250999Z" fill="#EBEBEB"/>
<path d="M216.071 145.921L216.521 132.78L208.453 130.144C208.121 125.654 207.37 121.22 206.302 116.948L213.14 111.906L208.495 99.5628L200.037 100.244C198.021 96.2528 195.652 92.4558 192.997 88.8938L197.378 81.5808L188.37 71.9698L180.808 75.8418C177.402 72.9468 173.812 70.3258 169.969 68.0078L171.194 59.6138L159.196 54.1688L153.699 60.6108C149.511 59.2518 145.172 58.2358 140.683 57.5618L138.639 49.3338L125.463 48.8828L122.861 56.9518C118.336 57.3168 113.937 58.0338 109.666 59.1028L104.588 52.2978L92.2464 56.9088L92.9284 65.3678C88.9364 67.4178 85.1404 69.7858 81.5784 72.4418L74.3004 68.0618L64.6544 77.0338L68.5254 84.6298C65.6324 88.0018 63.0094 91.6278 60.7244 95.4718L52.3324 94.2128L46.8534 106.209L53.3294 111.707C51.9714 115.896 50.9184 120.269 50.2804 124.725L42.0164 126.801L41.5664 139.942L49.6684 142.581C49.9994 147.104 50.7514 151.505 51.8204 155.775L44.9834 160.817L49.6284 173.161L58.0864 172.478C60.1024 176.469 62.4714 180.266 65.1264 183.828L60.7444 191.141L69.7534 200.753L77.3144 196.88C80.6864 199.774 84.3114 202.398 88.1544 204.716L86.8944 213.107L98.8924 218.552L104.424 212.111C108.612 213.47 112.951 214.486 117.441 215.16L119.485 223.388L132.661 223.839L135.264 215.77C139.788 215.405 144.187 214.688 148.458 213.619L153.501 220.422L165.843 215.811L165.195 207.355C169.188 205.305 172.949 202.934 176.545 200.279L183.824 204.661L193.469 195.688L189.599 188.092C192.492 184.72 195.115 181.094 197.4 177.25L205.792 178.51L211.271 166.513L204.794 161.015C206.153 156.827 207.204 152.489 207.843 147.999L216.071 145.921ZM127.275 188.492C98.4974 187.506 75.9624 163.372 76.9484 134.593C77.9354 105.78 102.069 83.2468 130.847 84.2328C159.625 85.2188 182.16 109.351 181.173 138.164C180.187 166.943 156.053 189.478 127.275 188.492Z" fill="#EBEBEB"/>
<path d="M440.957 102.47L444.271 99.375L442.947 96.765C443.961 95.589 444.859 94.325 445.64 93.023L448.537 93.461L450.414 89.319L448.185 87.423C448.667 85.958 449.015 84.455 449.236 82.939L452.088 82.224L452.235 77.684L449.447 76.784C449.322 75.248 449.086 73.733 448.714 72.231L451.06 70.483L449.462 66.23L446.551 66.46C445.861 65.107 445.051 63.801 444.121 62.543L445.629 60.038L442.526 56.715L439.923 58.047C438.73 57.032 437.483 56.135 436.181 55.354L436.602 52.456L432.468 50.571L430.572 52.8C429.099 52.326 427.596 51.978 426.079 51.757L425.372 48.914L420.832 48.75L419.924 51.546C418.396 51.663 416.873 51.907 415.378 52.288L413.639 49.935L409.378 51.524L409.616 54.444C408.263 55.134 406.94 55.944 405.698 56.875L403.177 55.366L399.863 58.461L401.195 61.08C400.173 62.264 399.283 63.52 398.502 64.822L395.605 64.384L393.727 68.527L395.956 70.423C395.474 71.888 395.126 73.391 394.905 74.907L392.053 75.622L391.906 80.163L394.694 81.062C394.811 82.59 395.055 84.114 395.426 85.616L393.073 87.355L394.671 91.608L397.591 91.386C398.281 92.739 399.091 94.044 400.022 95.304L398.514 97.809L401.617 101.132L404.219 99.799C405.411 100.813 406.659 101.711 407.961 102.492L407.532 105.381L411.666 107.266L413.57 105.046C415.044 105.52 416.539 105.859 418.063 106.088L418.77 108.931L423.31 109.095L424.218 106.299C425.746 106.182 427.269 105.938 428.764 105.557L430.503 107.911L434.765 106.322L434.526 103.402C435.878 102.712 437.193 101.911 438.444 100.972L440.957 102.47ZM417.341 83.339C414.903 80.728 415.043 76.633 417.654 74.195C420.268 71.754 424.363 71.894 426.801 74.506C429.239 77.117 429.099 81.212 426.485 83.653C423.874 86.091 419.779 85.95 417.341 83.339Z" fill="#EBEBEB"/>
<path d="M319.989 237.383L309.648 230.241C309.645 230.233 309.645 230.224 309.642 230.216C308.619 226.459 307.208 222.843 305.483 219.444L308.132 209.046L293.132 192.981L282.573 194.914C279.303 192.963 275.794 191.309 272.119 190.032C272.111 190.03 272.101 190.028 272.093 190.024L265.673 179.214L243.708 178.461L236.566 188.802C236.553 188.805 236.539 188.809 236.525 188.812C232.772 189.835 229.159 191.243 225.765 192.966L215.372 190.317L199.308 205.318L201.237 215.856C201.235 215.86 201.233 215.861 201.231 215.865C199.239 219.172 197.623 222.682 196.346 226.359L185.538 232.776L184.785 254.742L195.135 261.89C196.157 265.673 197.524 269.281 199.282 272.708C199.283 272.71 199.283 272.71 199.284 272.712L196.642 283.078L211.642 299.141L222.135 297.221C225.447 299.179 228.961 300.835 232.681 302.114C232.684 302.116 232.686 302.116 232.69 302.116L239.099 312.91L261.064 313.663L268.201 303.329C271.998 302.308 275.616 300.898 279.052 299.171C279.052 299.171 279.054 299.171 279.055 299.169L289.401 301.805L305.465 286.806L303.536 276.266C305.528 272.959 307.144 269.447 308.421 265.77L308.422 265.768L319.234 259.347L319.989 237.383ZM251.537 270.773C237.883 270.305 227.217 258.842 227.683 245.227C228.151 231.573 239.575 220.906 253.229 221.373C266.883 221.841 277.55 233.265 277.083 246.919C276.617 260.534 265.191 271.241 251.537 270.773Z" fill="#EBEBEB"/>
<path d="M343.548 174.999C343.524 174.999 343.5 174.999 343.476 174.998L326.159 174.405C325.44 174.381 324.783 173.991 324.416 173.373L319.753 165.521C317.274 164.622 314.831 163.488 312.47 162.143L304.963 163.516C304.255 163.65 303.531 163.407 303.04 162.88L291.214 150.217C290.723 149.691 290.534 148.951 290.711 148.254L292.599 140.844C291.452 138.497 290.492 135.99 289.74 133.374L282.209 128.173C281.617 127.765 281.274 127.082 281.298 126.364L281.891 109.047C281.915 108.328 282.305 107.671 282.923 107.304L290.789 102.633C291.722 100.079 292.853 97.6478 294.159 95.3848L292.78 87.8518C292.651 87.1448 292.89 86.4188 293.416 85.9288L306.081 74.1018C306.607 73.6098 307.347 73.4218 308.044 73.5988L315.479 75.4938C317.884 74.3238 320.383 73.3598 322.928 72.6228L328.125 65.0978C328.533 64.5058 329.204 64.1398 329.935 64.1878L347.252 64.7818C347.971 64.8058 348.628 65.1948 348.995 65.8138L353.667 73.6798C356.149 74.5888 358.573 75.7198 360.894 77.0518L368.448 75.6678C369.157 75.5388 369.881 75.7778 370.372 76.3038L382.198 88.9698C382.689 89.4958 382.878 90.2358 382.701 90.9328L380.805 98.3708C381.976 100.777 382.939 103.275 383.677 105.817L391.202 111.013C391.794 111.421 392.137 112.104 392.113 112.823L391.52 130.141C391.496 130.86 391.106 131.517 390.488 131.884L382.619 136.557C381.686 139.11 380.557 141.54 379.253 143.8L380.632 151.336C380.761 152.043 380.522 152.769 379.996 153.259L367.331 165.083C366.806 165.575 366.067 165.765 365.369 165.586L357.968 163.7C355.529 164.878 353.016 165.841 350.48 166.57L345.288 174.089C344.891 174.659 344.241 174.999 343.548 174.999ZM327.457 170.224L342.466 170.739L347.437 163.541C347.721 163.13 348.143 162.832 348.626 162.702C351.391 161.959 354.134 160.907 356.781 159.576C356.786 159.574 356.79 159.572 356.795 159.569C357.236 159.352 357.75 159.285 358.253 159.416L365.291 161.209L376.268 150.96L374.955 143.786C374.862 143.28 374.958 142.758 375.223 142.316C376.671 139.913 377.899 137.277 378.873 134.482C379.033 133.986 379.372 133.569 379.814 133.309L387.337 128.841L387.851 113.831L380.648 108.856C380.271 108.596 379.989 108.22 379.844 107.787C379.826 107.733 379.81 107.676 379.796 107.618C379.043 104.86 377.995 102.15 376.682 99.5628C376.45 99.1058 376.393 98.5808 376.518 98.0848L378.322 91.0068L368.072 80.0278L360.883 81.3438C360.379 81.4368 359.86 81.3418 359.421 81.0798C356.921 79.5878 354.281 78.3548 351.575 77.4138C351.422 77.3608 351.267 77.2898 351.134 77.2088C350.842 77.0288 350.599 76.7818 350.425 76.4878L345.953 68.9588L330.944 68.4438L325.969 75.6478C325.673 76.0768 325.23 76.3788 324.726 76.4998C321.949 77.2608 319.248 78.3048 316.672 79.6118C316.215 79.8438 315.689 79.9018 315.195 79.7748L308.12 77.9708L297.143 88.2218L298.456 95.3948C298.539 95.8448 298.472 96.3098 298.268 96.7188C298.239 96.7768 298.207 96.8328 298.173 96.8888C296.722 99.3008 295.492 101.945 294.519 104.748C294.355 105.218 294.031 105.616 293.603 105.87L286.075 110.341L285.561 125.35L292.771 130.33C293.182 130.613 293.479 131.034 293.61 131.516C294.387 134.392 295.433 137.123 296.72 139.633C296.794 139.777 296.852 139.929 296.891 140.087C296.976 140.426 296.975 140.781 296.889 141.12L295.091 148.174L305.341 159.15L312.479 157.844C312.98 157.753 313.496 157.846 313.933 158.104C316.478 159.609 319.131 160.841 321.821 161.769C322.307 161.923 322.728 162.252 322.995 162.703L327.457 170.224ZM336.728 151.259C336.358 151.259 335.989 151.252 335.617 151.239C318.171 150.641 304.464 135.962 305.062 118.516C305.66 101.071 320.363 87.3678 337.785 87.9598C355.231 88.5578 368.938 103.237 368.34 120.684C368.051 129.124 364.49 136.953 358.314 142.726C352.403 148.252 344.774 151.259 336.728 151.259ZM336.69 92.1648C321.992 92.1648 309.79 103.86 309.283 118.661C308.765 133.779 320.643 146.5 335.762 147.018C343.088 147.263 350.073 144.65 355.431 139.641C360.784 134.637 363.87 127.853 364.12 120.539C364.638 105.421 352.759 92.6988 337.641 92.1808C337.323 92.1708 337.005 92.1648 336.69 92.1648Z" fill="#EBEBEB"/>
<path d="M383.44 50.3689L376.266 48.4429L374.34 41.2699L377.149 38.4609L380.112 44.5969L386.248 47.5609L383.44 50.3689Z" fill="#E0E0E0"/>
<path d="M383.886 45.5675C385.193 44.2605 385.193 42.1305 383.886 40.8235C382.579 39.5165 380.459 39.5265 379.152 40.8335L382.72 35.4805L387.506 37.8995L388.555 42.9285L383.886 45.5675Z" fill="#E0E0E0"/>
<path d="M376.582 39.0265L381.839 33.7695L389.012 35.6955L390.939 42.8695L385.682 48.1265L378.508 46.1995L376.582 39.0265ZM386.127 43.3245C387.434 42.0175 387.434 39.8875 386.127 38.5805C384.82 37.2735 382.7 37.2835 381.393 38.5905C380.086 39.8975 380.086 42.0085 381.393 43.3145C382.7 44.6215 384.82 44.6315 386.127 43.3245Z" fill="#F5F5F5"/>
<path d="M90.2179 241.749L94.0669 240.715L95.1009 236.866L93.5939 235.359L92.0039 238.652L88.7109 240.242L90.2179 241.749Z" fill="#E0E0E0"/>
<path d="M89.9787 239.172C89.2777 238.471 89.2777 237.328 89.9787 236.626C90.6797 235.925 91.8177 235.93 92.5187 236.631L90.6037 233.758L88.0357 235.056L87.4727 237.754L89.9787 239.172Z" fill="#E0E0E0"/>
<path d="M93.8993 235.665L91.0783 232.844L87.2293 233.878L86.1953 237.728L89.0163 240.549L92.8653 239.515L93.8993 235.665ZM88.7763 237.971C88.0753 237.27 88.0753 236.127 88.7763 235.425C89.4773 234.724 90.6153 234.729 91.3163 235.43C92.0173 236.131 92.0173 237.264 91.3163 237.965C90.6163 238.667 89.4783 238.672 88.7763 237.971Z" fill="#F5F5F5"/>
<path d="M76.3623 30.7076L79.5573 33.9026C80.3893 34.7346 81.7503 34.7346 82.5823 33.9026C83.4143 33.0706 83.4143 31.7096 82.5823 30.8776L79.3873 27.6826C78.5553 26.8506 77.1943 26.8506 76.3623 27.6826C75.5303 28.5146 75.5303 29.8766 76.3623 30.7076Z" fill="#F5F5F5"/>
<path d="M74.109 22.7501C76.571 21.8661 79.24 23.0221 80.07 25.3331C80.9 27.6441 79.577 30.2341 77.115 31.1191C74.653 32.0031 71.984 30.8471 71.154 28.5361C70.324 26.2251 71.647 23.6351 74.109 22.7501Z" fill="#E0E0E0"/>
<path d="M70.6307 28.0037L71.0938 29.293L80.6007 25.8785L80.1377 24.5892L70.6307 28.0037Z" fill="#F5F5F5"/>
<path d="M249.998 372.607C357.08 372.607 443.887 367.537 443.887 361.284C443.887 355.03 357.08 349.961 249.998 349.961C142.916 349.961 56.1094 355.03 56.1094 361.284C56.1094 367.537 142.916 372.607 249.998 372.607Z" fill="#F5F5F5"/>
<path d="M86.7143 65.6955C85.7133 61.2925 86.1603 57.5855 88.0563 54.5725C89.9523 51.5615 93.0903 49.5585 97.4693 48.5625C101.959 47.5415 105.692 47.9605 108.669 49.8195C111.646 51.6775 113.628 54.7775 114.615 59.1205C115.332 62.2735 115.389 64.9795 114.787 67.2385C114.184 69.4985 113.008 71.4175 111.258 72.9955C109.507 74.5745 107.135 75.7025 104.142 76.3835C101.1 77.0755 98.4723 77.1635 96.2583 76.6485C94.0443 76.1325 92.0793 74.9665 90.3633 73.1495C88.6473 71.3335 87.4303 68.8495 86.7143 65.6955ZM95.0583 63.8385C95.6773 66.5625 96.6283 68.4035 97.9113 69.3625C99.1933 70.3235 100.705 70.6035 102.448 70.2075C104.239 69.8015 105.493 68.9035 106.209 67.5155C106.925 66.1275 106.941 63.9235 106.254 60.9065C105.677 58.3675 104.743 56.6285 103.452 55.6885C102.161 54.7505 100.639 54.4805 98.8853 54.8795C97.2043 55.2615 95.9903 56.1635 95.2423 57.5845C94.4943 59.0065 94.4333 61.0905 95.0583 63.8385Z" fill="#7B7B7B"/>
<path d="M118.591 62.3948C117.913 59.4148 118.361 56.7288 119.934 54.3388C121.506 51.9488 124.004 50.3648 127.427 49.5878C131.34 48.6978 134.554 49.1598 137.07 50.9758C139.092 52.4388 140.408 54.5068 141.016 57.1808C141.699 60.1878 141.263 62.8758 139.705 65.2488C138.148 67.6218 135.609 69.2088 132.088 70.0088C128.948 70.7228 126.227 70.5038 123.926 69.3488C121.097 67.9158 119.319 65.5978 118.591 62.3948ZM126.095 60.6708C126.491 62.4118 127.136 63.6198 128.032 64.2948C128.927 64.9688 129.908 65.1838 130.975 64.9408C132.054 64.6948 132.847 64.0828 133.353 63.1028C133.859 62.1238 133.906 60.7258 133.494 58.9118C133.109 57.2188 132.473 56.0368 131.585 55.3678C130.697 54.6988 129.738 54.4808 128.708 54.7158C127.616 54.9638 126.81 55.5898 126.29 56.5918C125.769 57.5928 125.704 58.9528 126.095 60.6708Z" fill="#7B7B7B"/>
<path d="M148.582 73.6172L142.449 46.6402L149.46 45.0452L150.117 47.9342C150.81 46.5002 151.512 45.4772 152.224 44.8632C153.185 44.0392 154.328 43.4752 155.653 43.1752C158.266 42.5802 160.514 43.1212 162.398 44.7952C164.282 46.4702 165.559 48.7792 166.228 51.7242C166.967 54.9752 166.752 57.6332 165.583 59.6992C164.414 61.7642 162.64 63.0682 160.26 63.6092C159.107 63.8712 158.011 63.9142 156.97 63.7372C155.93 63.5602 154.948 63.1722 154.024 62.5692L156.145 71.8982L148.582 73.6172ZM152.191 54.7602C152.542 56.3062 153.128 57.3792 153.948 57.9802C154.768 58.5812 155.675 58.7672 156.669 58.5422C157.54 58.3442 158.189 57.8192 158.614 56.9682C159.039 56.1162 159.057 54.8322 158.667 53.1142C158.307 51.5312 157.736 50.4392 156.954 49.8372C156.172 49.2332 155.339 49.0332 154.456 49.2332C153.5 49.4512 152.787 50.0072 152.319 50.8992C151.851 51.7932 151.808 53.0792 152.191 54.7602Z" fill="#7B7B7B"/>
<path d="M169.435 55.3491L176.71 52.9591C177.217 53.7721 177.791 54.3071 178.429 54.5631C179.067 54.8171 179.847 54.8401 180.767 54.6311C181.772 54.4021 182.503 54.0111 182.958 53.4561C183.315 53.0401 183.439 52.5941 183.33 52.1151C183.208 51.5761 182.831 51.2231 182.2 51.0581C181.748 50.9421 180.616 50.9291 178.805 51.0181C176.101 51.1571 174.2 51.1471 173.099 50.9921C171.999 50.8351 170.998 50.3771 170.096 49.6151C169.194 48.8541 168.609 47.8841 168.342 46.7081C168.05 45.4211 168.172 44.2281 168.708 43.1261C169.245 42.0241 170.117 41.0941 171.325 40.3361C172.533 39.5781 174.241 38.9481 176.449 38.4461C178.78 37.9161 180.541 37.7041 181.732 37.8061C182.923 37.9101 183.975 38.2511 184.887 38.8301C185.8 39.4101 186.646 40.2811 187.426 41.4461L180.482 43.7601C180.156 43.1751 179.745 42.7851 179.249 42.5891C178.57 42.3291 177.814 42.2941 176.98 42.4851C176.133 42.6771 175.551 42.9671 175.233 43.3551C174.915 43.7431 174.804 44.1521 174.902 44.5811C175.01 45.0591 175.338 45.3641 175.884 45.4971C176.43 45.6321 177.548 45.6081 179.236 45.4311C181.79 45.1481 183.732 45.1181 185.061 45.3451C186.39 45.5711 187.482 46.0771 188.338 46.8621C189.193 47.6471 189.748 48.5971 190.002 49.7131C190.258 50.8411 190.167 52.0151 189.729 53.2351C189.29 54.4561 188.41 55.5481 187.087 56.5131C185.765 57.4761 183.84 58.2461 181.313 58.8221C177.743 59.6341 175.084 59.7011 173.338 59.0281C171.592 58.3541 170.291 57.1281 169.435 55.3491Z" fill="#7B7B7B"/>
<path d="M193.848 30.6163L202.056 30.5703L202.092 36.8733L200.578 49.5443L195.502 49.5723L193.883 36.9193L193.848 30.6163ZM194.249 51.5043L201.91 51.4613L201.949 58.2353L194.288 58.2783L194.249 51.5043Z" fill="#7B7B7B"/>
<path d="M128.681 116.63C128.621 116.63 128.56 116.619 128.5 116.596C123.999 114.853 121.306 113.15 119.908 111.104C118.892 111.308 117.755 111.173 116.676 110.66C115.628 110.162 114.619 109.291 113.895 108.038C113.22 108.559 112.386 108.701 111.47 108.413C110.454 108.094 109.397 107.238 108.518 106.002C107.959 106.406 107.386 106.467 106.966 106.432C103.993 106.19 99.9653 100.272 99.6763 93.9652C99.6633 93.6902 99.8773 93.4552 100.153 93.4442C100.423 93.4212 100.663 93.6442 100.675 93.9212C100.949 99.9062 104.784 105.252 107.048 105.436C107.415 105.472 107.722 105.357 107.98 105.157C106.622 102.774 105.917 99.3762 106.957 95.7452C107.817 92.7402 108.577 91.5652 109.489 91.7832C111.212 92.2122 110.986 98.7552 110.073 103.071C109.866 104.05 109.568 104.752 109.228 105.254C110.017 106.419 110.952 107.203 111.771 107.461C112.503 107.691 113.045 107.496 113.445 107.115C112.659 105.179 112.496 102.541 113.563 99.1762C114.967 94.7472 115.532 94.6272 115.87 94.5562C116.108 94.5052 116.346 94.5842 116.515 94.7762C117.439 95.8192 116.335 102.698 115.171 106.1C115.02 106.542 114.832 106.929 114.614 107.257C115.235 108.474 116.15 109.303 117.107 109.758C117.875 110.123 118.663 110.256 119.38 110.189C119.29 110 119.209 109.808 119.136 109.613C118.343 107.466 118.731 104.987 120.321 102.035C121.376 100.077 122.236 99.1642 123.028 99.1632C123.263 99.1632 123.704 99.2502 124.015 99.8252C124.887 101.434 124.256 106.744 122.532 109.379C122.126 110 121.565 110.471 120.914 110.777C122.254 112.539 124.798 114.091 128.863 115.667C129.12 115.767 129.248 116.056 129.149 116.313C129.071 116.509 128.881 116.63 128.681 116.63ZM123.027 100.16C123.024 100.16 122.462 100.164 121.2 102.507C119.754 105.192 119.385 107.402 120.073 109.264C120.157 109.492 120.257 109.714 120.373 109.934C120.907 109.705 121.364 109.333 121.694 108.83C123.094 106.689 123.765 102.292 123.244 100.573C123.137 100.221 123.028 100.16 123.027 100.16ZM115.855 95.9472C115.597 96.4322 115.163 97.4312 114.515 99.4762C113.657 102.184 113.652 104.36 114.13 106.024C114.163 105.94 114.194 105.856 114.223 105.773C115.399 102.335 115.972 97.5992 115.855 95.9472ZM109.269 92.7972C109.1 92.9522 108.614 93.5822 107.917 96.0182C106.998 99.2312 107.564 102.162 108.644 104.264C108.851 103.83 108.995 103.33 109.094 102.862C110.131 97.9512 109.829 93.5082 109.269 92.7972Z" fill="#7B7B7B"/>
<path d="M166.699 169.046C165.174 169.046 163.57 168.698 162.138 167.857C161.9 167.716 161.82 167.411 161.96 167.172C162.099 166.933 162.406 166.856 162.644 166.993C166.211 169.088 170.822 167.626 171.771 166.1C171.881 165.921 171.982 165.694 171.918 165.429C170.507 165.578 168.771 165.204 166.787 163.963C164.242 162.372 164.046 161.899 164.062 161.521C164.072 161.297 164.199 161.102 164.403 160.998C165.399 160.493 169.908 162.572 171.788 163.808C172.034 163.97 172.242 164.145 172.41 164.33C173.241 164.128 173.885 163.698 174.313 163.185C174.607 162.832 174.803 162.448 174.9 162.063C174.834 162.073 174.767 162.081 174.7 162.087C173.101 162.248 171.497 161.562 169.789 159.983C168.615 158.898 168.159 158.15 168.311 157.557C168.359 157.368 168.517 157.032 169.03 156.904C170.413 156.56 173.827 158.015 175.223 159.546C175.537 159.89 175.751 160.295 175.865 160.73C177.17 160.117 178.55 158.742 180.184 156.459C180.345 156.234 180.657 156.183 180.882 156.344C181.107 156.504 181.158 156.817 180.998 157.041C179.109 159.681 177.534 161.177 175.952 161.787C175.89 162.491 175.599 163.207 175.083 163.827C174.576 164.434 173.837 164.956 172.902 165.238C173.002 165.688 172.912 166.164 172.622 166.63C171.777 167.987 169.359 169.046 166.699 169.046ZM165.811 162.11C166.147 162.358 166.629 162.686 167.317 163.117C168.674 163.966 169.883 164.357 170.917 164.439C169.26 163.412 167.093 162.503 165.811 162.11ZM169.301 157.862C169.357 158.018 169.579 158.429 170.467 159.25C171.953 160.624 173.305 161.235 174.598 161.094C174.704 161.083 174.811 161.068 174.918 161.046C174.847 160.742 174.702 160.461 174.484 160.221C173.077 158.678 169.984 157.701 169.301 157.862Z" fill="#7B7B7B"/>
<path d="M179.942 167.675L164.36 170.505L150.213 93.293L120.149 98.754L71.1602 185.753L76.4202 214.461L139.257 203.047L143.559 226.528L173.623 221.067L169.321 197.587L184.903 194.756L179.942 167.675ZM101.094 181.998L127.053 136.431L134.297 175.967L101.094 181.998Z" fill="#FBC02D"/>
<path d="M305.429 88.0398C304.847 82.7058 303.782 77.9668 302.232 73.8218C300.683 69.6768 298.352 65.6138 295.242 61.6328C292.132 57.6518 287.897 54.1958 282.538 51.2668C277.178 48.3388 270.104 46.2998 261.315 45.1548C243.023 42.7718 228.764 46.0198 218.533 54.8948C208.301 63.7718 201.57 80.7758 198.335 105.906C197.019 116.127 196.693 125.575 197.358 134.251C198.021 142.926 199.613 149.904 202.136 155.184C205.587 162.603 210.471 168.528 216.785 172.956C223.098 177.385 231.747 180.316 242.735 181.747C262.332 184.3 276.854 180.539 286.304 170.46C295.752 160.383 302.021 143.348 305.109 119.359C306.488 108.656 306.594 98.2168 305.429 88.0398Z" fill="#FBC02D"/>
<path d="M251.764 171.482C249.359 171.4 246.8 171.183 244.157 170.838C235.003 169.646 227.92 167.329 223.104 163.95C218.352 160.618 214.757 156.234 212.112 150.544L212.063 150.441C210.14 146.418 208.884 140.688 208.328 133.413C207.723 125.525 208.032 116.744 209.246 107.311C212.815 79.5901 220.187 68.0241 225.743 63.2041C232.221 57.5841 240.964 55.0441 252.473 55.4381C254.831 55.5191 257.328 55.7301 259.894 56.0641C267.28 57.0261 273.124 58.6601 277.264 60.9211C281.273 63.1121 284.406 65.6311 286.574 68.4061C288.978 71.4821 290.779 74.6011 291.928 77.6751C293.151 80.9451 294.014 84.8341 294.494 89.2331C295.559 98.5421 295.458 108.186 294.201 117.955C291.428 139.494 286.072 154.628 278.281 162.936C272.502 169.101 263.829 171.897 251.767 171.483C251.765 171.482 251.764 171.482 251.764 171.482Z" fill="#7B7B7B"/>
<path d="M271.335 88.3324L271.465 84.5444L269.14 83.7844C269.044 82.4904 268.828 81.2124 268.52 79.9804L270.491 78.5274L269.152 74.9694L266.714 75.1654C266.133 74.0154 265.45 72.9204 264.685 71.8934L265.948 69.7854L263.351 67.0154L261.171 68.1314C260.189 67.2974 259.154 66.5414 258.046 65.8734L258.399 63.4534L254.941 61.8834L253.357 63.7404C252.15 63.3484 250.899 63.0554 249.605 62.8614L249.016 60.4894L245.218 60.3594L244.468 62.6854C243.163 62.7904 241.896 62.9974 240.665 63.3054L239.201 61.3444L235.643 62.6734L235.84 65.1114C234.689 65.7024 233.595 66.3844 232.568 67.1504L230.47 65.8884L227.69 68.4744L228.806 70.6634C227.972 71.6354 227.216 72.6804 226.557 73.7884L224.138 73.4254L222.559 76.8834L224.426 78.4684C224.034 79.6764 223.731 80.9364 223.547 82.2204L221.165 82.8184L221.035 86.6064L223.37 87.3674C223.465 88.6714 223.682 89.9394 223.99 91.1704L222.019 92.6234L223.358 96.1814L225.796 95.9844C226.377 97.1344 227.06 98.2294 227.825 99.2564L226.562 101.364L229.159 104.135L231.338 103.019C232.31 103.853 233.355 104.609 234.462 105.278L234.099 107.697L237.557 109.267L239.152 107.41C240.359 107.802 241.61 108.095 242.904 108.289L243.493 110.661L247.291 110.791L248.041 108.465C249.345 108.36 250.613 108.153 251.844 107.845L253.298 109.806L256.856 108.477L256.669 106.039C257.82 105.448 258.904 104.765 259.941 103.999L262.039 105.262L264.819 102.675L263.703 100.486C264.537 99.5144 265.293 98.4694 265.951 97.3614L268.37 97.7244L269.949 94.2664L268.082 92.6814C268.474 91.4744 268.777 90.2234 268.961 88.9294L271.335 88.3324ZM245.74 100.603C237.445 100.319 230.949 93.3624 231.233 85.0674C231.518 76.7624 238.474 70.2674 246.769 70.5514C255.064 70.8354 261.56 77.7914 261.275 86.0964C260.992 94.3914 254.035 100.887 245.74 100.603Z" fill="#FBC02D"/>
<path opacity="0.3" d="M287.119 157.914L287.394 155.361L285.859 154.735C285.854 153.857 285.778 152.988 285.632 152.141L287.032 151.252L286.321 148.782L284.659 148.795C284.324 147.988 283.929 147.213 283.463 146.484L284.411 145.124L282.806 143.126L281.275 143.764C280.664 143.158 280.004 142.597 279.284 142.093L279.656 140.467L277.405 139.232L276.229 140.42C275.422 140.076 274.588 139.825 273.752 139.633L273.469 137.997L270.916 137.711L270.29 139.246C269.412 139.251 268.555 139.339 267.696 139.485L266.808 138.073L264.337 138.796L264.35 140.458C263.554 140.794 262.78 141.189 262.039 141.655L260.679 140.695L258.682 142.3L259.32 143.831C258.725 144.443 258.153 145.102 257.648 145.822L256.033 145.462L254.798 147.713L255.975 148.877C255.643 149.697 255.381 150.519 255.188 151.366L253.552 151.637L253.277 154.19L254.811 154.828C254.805 155.694 254.892 156.563 255.039 157.411L253.628 158.299L254.351 160.77L256.013 160.768C256.349 161.564 256.743 162.338 257.21 163.068L256.251 164.428L257.856 166.437L259.4 165.788C260.011 166.394 260.67 166.955 261.391 167.46L261.019 169.086L263.27 170.322L264.445 169.145C265.253 169.477 266.087 169.728 266.923 169.92L267.206 171.556L269.759 171.842L270.385 170.307C271.251 170.302 272.12 170.215 272.979 170.069L273.867 171.48L276.326 170.757L276.325 169.095C277.121 168.759 277.895 168.365 278.636 167.899L279.984 168.858L281.993 167.254L281.343 165.722C281.949 165.111 282.51 164.451 283.026 163.732L284.64 164.091L285.875 161.84L284.698 160.676C285.03 159.857 285.281 159.034 285.473 158.198L287.119 157.914ZM274.246 156.923C273.06 159.082 270.341 159.879 268.182 158.693C266.023 157.507 265.238 154.789 266.424 152.63C267.61 150.471 270.316 149.686 272.476 150.871C274.635 152.057 275.431 154.764 274.246 156.923Z" fill="#FBC02D"/>
<path d="M301.288 114.695L298.307 112.636C298.306 112.634 298.306 112.631 298.305 112.629C298.01 111.546 297.603 110.504 297.106 109.524L297.87 106.527L293.546 101.896L290.503 102.453C289.561 101.89 288.549 101.414 287.49 101.046C287.488 101.045 287.485 101.045 287.482 101.044L285.632 97.9279L279.301 97.7109L277.242 100.692C277.238 100.693 277.234 100.694 277.23 100.695C276.148 100.99 275.107 101.396 274.128 101.892L271.132 101.128L266.502 105.452L267.058 108.49C267.057 108.491 267.057 108.492 267.056 108.493C266.482 109.446 266.016 110.458 265.648 111.518L262.533 113.368L262.316 119.699L265.299 121.759C265.593 122.849 265.988 123.889 266.494 124.877C266.494 124.878 266.494 124.878 266.494 124.878L265.733 127.866L270.056 132.496L273.081 131.943C274.035 132.507 275.048 132.985 276.121 133.353C276.122 133.354 276.123 133.354 276.124 133.354L277.971 136.465L284.302 136.682L286.359 133.703C287.453 133.409 288.496 133.002 289.487 132.504C289.487 132.504 289.488 132.504 289.488 132.503L292.47 133.263L297.1 128.94L296.544 125.902C297.118 124.949 297.584 123.936 297.952 122.877L301.068 121.025L301.288 114.695ZM281.557 124.32C277.621 124.185 274.547 120.881 274.681 116.957C274.816 113.021 278.109 109.947 282.044 110.081C285.98 110.216 289.054 113.509 288.92 117.444C288.786 121.368 285.492 124.455 281.557 124.32Z" fill="white"/>
<path d="M323.041 64.1719L323.562 62.9149C323.563 62.9149 323.564 62.9139 323.565 62.9139C323.939 62.7209 324.29 62.4889 324.611 62.2289L325.772 62.2729L327.132 60.3209L326.688 59.2469C326.82 58.8569 326.916 58.4479 326.967 58.0299C326.967 58.0289 326.967 58.0279 326.967 58.0269L327.965 57.1019L327.546 54.7599L326.289 54.2389C326.288 54.2379 326.288 54.2359 326.287 54.2349C326.094 53.8609 325.863 53.5109 325.603 53.1899L325.647 52.0299L323.695 50.6699L322.623 51.1129H322.622C322.227 50.9769 321.819 50.8859 321.401 50.8339L320.476 49.8359L318.134 50.2549L317.612 51.5129C317.235 51.7069 316.884 51.9339 316.561 52.1979L315.404 52.1539L314.045 54.1059L314.486 55.1729C314.354 55.5679 314.258 55.9769 314.208 56.3999L313.211 57.3239L313.63 59.6659L314.886 60.1869C315.08 60.5659 315.312 60.9169 315.573 61.2409L315.529 62.3959L317.481 63.7559L318.553 63.3119C318.948 63.4479 319.357 63.5389 319.775 63.5909L320.7 64.5899L323.041 64.1719ZM317.952 57.6849C317.692 56.2289 318.663 54.8399 320.114 54.5799C321.57 54.3199 322.958 55.2859 323.219 56.7419C323.48 58.1979 322.512 59.5859 321.057 59.8469C319.606 60.1069 318.213 59.1409 317.952 57.6849Z" fill="#FBC02D"/>
<path d="M295.608 57.5373L294.844 56.8923C296.172 55.3203 298.055 53.3283 300.852 51.8633L301.316 52.7503C298.334 54.3113 296.424 56.5723 295.608 57.5373Z" fill="#FBC02D"/>
<path d="M303.59 51.8488L303.195 50.9288C306.978 49.3088 310.93 48.6768 314.934 49.0488L314.841 50.0448C311.001 49.6788 307.217 50.2928 303.59 51.8488Z" fill="#FBC02D"/>
<path d="M301.701 58.7684L300.875 58.2054C302.929 55.1884 306.988 52.5614 310.746 51.8164L310.94 52.7964C307.418 53.4964 303.619 55.9514 301.701 58.7684Z" fill="#FBC02D"/>
<path d="M235.341 155.005C235.207 155.005 235.077 154.951 234.982 154.853L232.885 152.692C231.817 152.591 230.761 152.395 229.739 152.106L226.471 153.547C226.316 153.618 226.136 153.6 225.993 153.507L220.518 149.877C220.376 149.782 220.292 149.623 220.294 149.452L220.348 145.889C219.683 145.061 219.09 144.162 218.582 143.212L215.777 142.124C215.618 142.062 215.502 141.925 215.467 141.758L214.162 135.32C214.128 135.153 214.182 134.98 214.304 134.861L216.465 132.765C216.565 131.702 216.761 130.645 217.049 129.616L215.61 126.352C215.541 126.196 215.557 126.016 215.65 125.873L219.279 120.397C219.373 120.255 219.507 120.167 219.704 120.173L223.265 120.228C224.101 119.56 225.001 118.967 225.944 118.463L227.032 115.656C227.094 115.497 227.232 115.381 227.399 115.346L233.837 114.04C234.004 114.008 234.177 114.06 234.295 114.182L236.389 116.341C237.453 116.441 238.511 116.638 239.542 116.926L242.805 115.487C242.96 115.419 243.14 115.434 243.283 115.528L248.758 119.157C248.9 119.252 248.984 119.411 248.982 119.582L248.928 123.147C249.594 123.976 250.186 124.875 250.692 125.822L253.499 126.911C253.658 126.973 253.774 127.11 253.809 127.277L255.114 133.715C255.148 133.882 255.094 134.055 254.972 134.174L252.81 136.271C252.711 137.322 252.515 138.377 252.225 139.414L253.666 142.683C253.735 142.839 253.719 143.02 253.626 143.162L249.998 148.639C249.904 148.781 249.754 148.852 249.574 148.863L246.011 148.809C245.181 149.471 244.282 150.062 243.336 150.568L242.245 153.381C242.184 153.54 242.045 153.656 241.878 153.691L235.44 154.997C235.407 155.002 235.374 155.005 235.341 155.005ZM229.704 151.075C229.751 151.075 229.799 151.082 229.845 151.096C230.916 151.41 232.029 151.618 233.156 151.712C233.277 151.722 233.389 151.775 233.473 151.862L235.509 153.961L241.411 152.764L242.471 150.032C242.515 149.919 242.599 149.825 242.706 149.769C243.709 149.246 244.656 148.624 245.521 147.918C245.612 147.844 245.715 147.793 245.844 147.806L249.315 147.859L252.642 142.839L251.238 139.655C251.191 139.548 251.183 139.426 251.216 139.313C251.532 138.222 251.739 137.108 251.832 136.002C251.842 135.881 251.895 135.769 251.982 135.684L254.081 133.648L252.885 127.747L250.158 126.689C250.042 126.644 249.947 126.558 249.891 126.447C249.371 125.447 248.748 124.504 248.04 123.641C247.965 123.549 247.924 123.434 247.926 123.316L247.979 119.842L242.959 116.515L239.783 117.915C239.675 117.962 239.555 117.97 239.442 117.938C238.358 117.623 237.24 117.415 236.119 117.322C235.998 117.312 235.886 117.258 235.802 117.173L233.769 115.076L227.867 116.273L226.81 119C226.766 119.113 226.682 119.207 226.574 119.263C225.578 119.782 224.63 120.406 223.758 121.117C223.667 121.191 223.545 121.244 223.433 121.231L219.963 121.177L216.636 126.197L218.038 129.376C218.098 129.513 218.094 129.669 218.028 129.802C217.746 130.801 217.539 131.916 217.445 133.035C217.435 133.155 217.382 133.267 217.295 133.352L215.197 135.387L216.393 141.288L219.119 142.345C219.241 142.392 219.339 142.485 219.392 142.602C219.91 143.594 220.532 144.536 221.236 145.393C221.311 145.485 221.353 145.602 221.351 145.72L221.298 149.192L226.318 152.52L229.502 151.116C229.566 151.09 229.635 151.075 229.704 151.075ZM234.622 147.84C232.094 147.84 229.54 147.124 227.279 145.626C224.313 143.66 222.289 140.656 221.58 137.169C220.871 133.681 221.564 130.126 223.53 127.159H223.531C227.596 121.034 235.883 119.352 242.004 123.409C248.126 127.472 249.806 135.759 245.748 141.883C243.187 145.746 238.943 147.84 234.622 147.84ZM224.364 127.712C222.546 130.455 221.905 133.743 222.561 136.97C223.216 140.196 225.088 142.974 227.832 144.792C233.499 148.546 241.161 146.993 244.913 141.33C248.667 135.666 247.114 128 241.451 124.243C235.789 120.49 228.124 122.046 224.364 127.712Z" fill="white"/>
<path d="M425.826 176.699L410.131 174.581L420.511 96.7735L390.23 92.6875L316.777 160.314L312.918 189.242L376.21 197.785L373.054 221.447L403.335 225.533L406.491 201.871L422.186 203.988L425.826 176.699ZM346.408 165.982L385.166 130.654L379.851 170.495L346.408 165.982Z" fill="#FBC02D"/>
<path d="M394.133 224.791C394.103 224.791 394.073 224.788 394.043 224.783C393.772 224.733 393.591 224.473 393.641 224.201L416.967 96.2706C417.016 96.0006 417.279 95.8306 417.548 95.8686C417.82 95.9186 418 96.1796 417.95 96.4506L394.624 224.381C394.58 224.622 394.37 224.791 394.133 224.791Z" fill="#7B7B7B"/>
<path d="M414.834 98.4178C414.818 98.8698 414.439 99.2238 413.987 99.2088C413.535 99.1928 413.181 98.8138 413.196 98.3618C413.211 97.9098 413.591 97.5558 414.043 97.5708C414.496 97.5858 414.85 97.9648 414.834 98.4178Z" fill="#7B7B7B"/>
<path d="M411.502 115.719C411.486 116.171 411.107 116.525 410.655 116.51C410.203 116.495 409.849 116.115 409.864 115.663C409.879 115.211 410.259 114.857 410.711 114.872C411.163 114.887 411.517 115.266 411.502 115.719Z" fill="#7B7B7B"/>
<path d="M408.166 133.019C408.15 133.471 407.771 133.825 407.319 133.81C406.867 133.795 406.513 133.415 406.528 132.963C406.543 132.511 406.923 132.157 407.375 132.172C407.828 132.188 408.182 132.567 408.166 133.019Z" fill="#7B7B7B"/>
<path d="M401.615 151.027C401.599 151.479 401.22 151.833 400.768 151.818C400.316 151.802 399.962 151.423 399.977 150.971C399.992 150.519 400.372 150.165 400.824 150.18C401.276 150.195 401.631 150.574 401.615 151.027Z" fill="#7B7B7B"/>
<path d="M401.502 167.621C401.486 168.073 401.107 168.427 400.655 168.412C400.203 168.396 399.849 168.017 399.864 167.565C399.879 167.113 400.259 166.759 400.711 166.774C401.164 166.789 401.518 167.169 401.502 167.621Z" fill="#7B7B7B"/>
<path d="M398.17 184.922C398.154 185.374 397.775 185.728 397.323 185.713C396.871 185.698 396.517 185.318 396.532 184.866C396.547 184.414 396.927 184.06 397.379 184.075C397.831 184.09 398.185 184.469 398.17 184.922Z" fill="#7B7B7B"/>
<path d="M394.838 202.222C394.822 202.674 394.443 203.028 393.991 203.013C393.539 202.997 393.185 202.618 393.2 202.166C393.216 201.714 393.595 201.36 394.047 201.375C394.5 201.39 394.854 201.769 394.838 202.222Z" fill="#7B7B7B"/>
<path d="M391.506 219.523C391.49 219.975 391.111 220.329 390.659 220.314C390.207 220.299 389.853 219.919 389.868 219.467C389.883 219.015 390.263 218.661 390.715 218.676C391.167 218.691 391.521 219.071 391.506 219.523Z" fill="#7B7B7B"/>
<path d="M400.792 151.502C400.562 151.502 400.354 151.342 400.304 151.106C400.246 150.836 400.418 150.571 400.688 150.512L403.172 149.979C403.446 149.925 403.708 150.092 403.766 150.364C403.824 150.634 403.652 150.899 403.382 150.958L400.898 151.491C400.862 151.498 400.827 151.502 400.792 151.502Z" fill="#7B7B7B"/>
<path d="M409.087 142.289C409.087 142.289 406.849 148.118 406.096 151.65C405.343 155.182 405.297 163.074 405.297 163.074" fill="#7B7B7B"/>
<path d="M405.297 163.574H405.294C405.018 163.572 404.795 163.347 404.797 163.071C404.799 162.747 404.851 155.087 405.607 151.545C406.36 148.016 408.528 142.35 408.62 142.109C408.719 141.852 409.007 141.724 409.266 141.822C409.524 141.921 409.653 142.211 409.554 142.468C409.532 142.527 407.322 148.302 406.585 151.754C405.851 155.196 405.798 162.999 405.797 163.077C405.795 163.353 405.572 163.574 405.297 163.574Z" fill="#7B7B7B"/>
<path d="M222.453 249.89C223.842 227.487 221.287 186.763 263.397 192.154C308.532 197.932 295.619 250.71 295.619 250.71L222.453 249.89Z" fill="#7B7B7B"/>
<path d="M251.516 236.422C261.664 236.422 269.891 228.195 269.891 218.047C269.891 207.899 261.664 199.672 251.516 199.672C241.367 199.672 233.141 207.899 233.141 218.047C233.141 228.195 241.367 236.422 251.516 236.422Z" fill="white"/>
<path d="M253.931 199.701C245.227 198.215 235.921 204.631 235.004 211.131L269.511 214.304C268.295 206.894 260.837 200.88 253.931 199.701Z" fill="#7B7B7B"/>
<path d="M265.579 217.59C265.332 222.394 262.714 226.164 259.731 226.011C256.748 225.858 254.53 221.839 254.776 217.035C255.023 212.231 257.641 208.461 260.624 208.614C263.607 208.767 265.826 212.786 265.579 217.59Z" fill="#7B7B7B"/>
<path d="M251.517 237.422C240.833 237.422 232.141 228.731 232.141 218.047C232.141 207.363 240.833 198.672 251.517 198.672C262.201 198.672 270.892 207.363 270.892 218.047C270.892 228.731 262.2 237.422 251.517 237.422ZM251.517 200.672C241.936 200.672 234.141 208.466 234.141 218.047C234.141 227.628 241.935 235.422 251.517 235.422C261.098 235.422 268.892 227.628 268.892 218.047C268.892 208.466 261.097 200.672 251.517 200.672Z" fill="#FBC02D"/>
<path opacity="0.3" d="M290.486 249.325C290.447 249.325 290.408 249.32 290.368 249.311C290.1 249.246 289.934 248.976 289.999 248.707C290.032 248.572 293.218 235.013 289.909 221.304C289.844 221.036 290.009 220.766 290.278 220.7C290.543 220.64 290.816 220.8 290.881 221.069C294.249 235.019 291.005 248.803 290.971 248.941C290.916 249.172 290.712 249.325 290.486 249.325Z" fill="white"/>
<path opacity="0.3" d="M287.701 213.809C287.511 213.809 287.33 213.701 287.246 213.517C285.96 210.711 284.365 208.135 282.504 205.86C282.329 205.646 282.361 205.332 282.575 205.157C282.788 204.981 283.103 205.012 283.279 205.227C285.193 207.568 286.834 210.217 288.155 213.101C288.27 213.352 288.16 213.649 287.909 213.763C287.841 213.794 287.771 213.809 287.701 213.809Z" fill="white"/>
<path d="M128.735 354.969C128.611 354.969 128.487 354.968 128.363 354.964C125.603 354.888 123.427 352.589 123.502 349.828C123.577 347.068 125.851 344.933 128.637 344.968C128.668 344.969 128.7 344.969 128.733 344.969C131.622 344.969 138.572 341.459 153.111 318.539C153.892 317.309 155.172 316.479 156.614 316.269C158.059 316.064 159.519 316.492 160.619 317.449C178.56 333.092 197.573 342.829 197.763 342.926C200.224 344.176 201.207 347.186 199.957 349.647C198.707 352.109 195.699 353.094 193.238 351.843C192.483 351.46 175.864 342.963 158.44 328.697C146.254 347.016 137.211 354.969 128.735 354.969Z" fill="#7B7B7B"/>
<path d="M159.67 316.55C159.528 316.55 159.386 316.54 159.242 316.52C157.602 316.286 156.462 314.766 156.697 313.125C157.408 308.148 156.527 289.499 150.222 274.999C149.647 273.678 150.093 272.135 151.284 271.323C164.982 261.988 194.16 260.872 195.396 260.829C197.043 260.793 198.44 262.067 198.498 263.723C198.556 265.378 197.26 266.768 195.605 266.825C195.335 266.835 169.825 267.813 156.717 275.027C162.301 289.465 163.567 307.464 162.636 313.974C162.422 315.471 161.139 316.55 159.67 316.55Z" fill="#7B7B7B"/>
<path d="M164.711 312.668C162.716 307.962 153.723 308.497 148.443 312.53C145.621 314.685 141.802 321.171 141.4 323.521C140.999 325.872 142.627 328.001 145.423 327.759C148.871 327.461 153.604 322.45 153.604 322.45C150.455 325.538 154.518 327.717 160.581 323.251C163.945 320.774 166.945 317.938 164.711 312.668Z" fill="#FBC02D"/>
<path d="M336.707 251.21C336.662 251.21 336.615 251.204 336.569 251.19C336.304 251.114 336.15 250.836 336.227 250.572C337.559 245.932 339.014 243.097 340.927 241.521C340.634 240.525 340.667 239.381 341.08 238.262C341.482 237.173 342.259 236.091 343.442 235.257C342.863 234.631 342.647 233.812 342.852 232.875C343.079 231.834 343.836 230.705 344.988 229.719C344.535 229.198 344.424 228.631 344.421 228.211C344.396 225.229 349.928 220.686 356.183 219.832C356.457 219.781 356.709 219.985 356.746 220.26C356.783 220.533 356.592 220.785 356.318 220.823C350.38 221.634 345.401 225.932 345.421 228.203C345.424 228.571 345.56 228.867 345.783 229.106C348.034 227.539 351.357 226.531 355.065 227.243C358.134 227.83 359.382 228.478 359.238 229.41C358.966 231.163 352.429 231.525 348.048 231.004C347.055 230.886 346.328 230.651 345.798 230.358C344.709 231.249 344.011 232.249 343.829 233.088C343.666 233.837 343.908 234.359 344.324 234.724C346.18 233.767 348.793 233.367 352.24 234.129C356.777 235.13 356.946 235.683 357.048 236.012C357.12 236.247 357.062 236.489 356.887 236.674C355.931 237.687 348.981 237.206 345.489 236.351C345.034 236.24 344.633 236.088 344.286 235.9C343.129 236.629 342.385 237.613 342.018 238.608C341.724 239.406 341.657 240.201 341.792 240.911C341.972 240.804 342.156 240.706 342.344 240.616C344.413 239.634 346.915 239.799 349.998 241.117C352.043 241.993 353.029 242.767 353.101 243.556C353.123 243.789 353.077 244.236 352.531 244.598C351.006 245.611 345.661 245.457 342.883 243.978C342.228 243.628 341.709 243.113 341.345 242.492C339.71 243.985 338.392 246.658 337.189 250.847C337.124 251.068 336.924 251.21 336.707 251.21ZM342.132 241.879C342.408 242.391 342.819 242.813 343.351 243.096C345.608 244.297 350.047 244.572 351.713 243.9C352.053 243.762 352.104 243.647 352.104 243.647C352.104 243.644 352.049 243.084 349.603 242.038C346.8 240.839 344.565 240.671 342.772 241.52C342.554 241.624 342.34 241.743 342.132 241.879ZM345.466 235.311C345.552 235.336 345.639 235.36 345.724 235.381C349.255 236.245 354.022 236.393 355.657 236.124C355.151 235.91 354.117 235.568 352.022 235.106C349.249 234.495 347.081 234.686 345.466 235.311ZM346.728 229.689C347.179 229.857 347.689 229.956 348.165 230.012C353.148 230.602 357.547 229.905 358.205 229.284C358.035 229.13 357.364 228.702 354.876 228.226C351.593 227.601 348.725 228.424 346.728 229.689Z" fill="#7B7B7B"/>
<path d="M206.529 353.295C207.188 353.084 206.967 352.448 206.232 352.448H192.693C166.912 349.718 148.899 353.377 160.25 354.24C171.6 355.103 159.451 354.922 151.162 358.057C142.873 361.193 212.816 361.983 219.177 358.057C225.043 354.436 197.394 356.223 206.529 353.295Z" fill="#7B7B7B"/>
<path d="M303.468 357.287L185.666 353.382L180.777 239.16L319.888 242.271L303.468 357.287Z" fill="#FBC02D"/>
<path d="M222.454 355.103C222.196 355.103 221.977 354.906 221.956 354.644L212.513 239.923C212.49 239.648 212.695 239.406 212.971 239.384C213.254 239.368 213.488 239.566 213.51 239.841L222.953 354.562C222.975 354.837 222.771 355.079 222.495 355.101C222.481 355.102 222.467 355.103 222.454 355.103Z" fill="#7B7B7B"/>
<path d="M303.469 357.289L335.131 352.469L345.104 246.259L319.889 242.273L303.469 357.289Z" fill="#FBC02D"/>
<path opacity="0.2" d="M303.469 357.289L335.131 352.469L345.104 246.259L319.889 242.273L303.469 357.289Z" fill="#6B6B6B"/>
<path d="M195.736 331.365L192.832 263.504C192.529 256.42 198.276 250.555 205.364 250.714L293.423 252.683C300.777 252.847 306.334 259.401 305.294 266.683L295.531 335.074C294.646 341.272 289.236 345.81 282.979 345.602L207.588 343.103C201.176 342.89 196.011 337.774 195.736 331.365Z" fill="#7B7B7B"/>
<path d="M205.25 271.539L218.874 271.973L218.762 275.486L210.233 275.215L210.15 277.83L218.062 278.082L217.955 281.437L210.043 281.185L209.94 284.428L218.716 284.707L218.598 288.433L204.727 287.992L205.25 271.539Z" fill="white"/>
<path d="M221.402 288.522L221.925 272.07L230.398 272.34C231.969 272.39 233.166 272.563 233.987 272.859C234.809 273.155 235.462 273.675 235.948 274.421C236.434 275.167 236.66 276.063 236.626 277.111C236.597 278.024 236.377 278.805 235.967 279.455C235.557 280.105 235.004 280.625 234.31 281.014C233.868 281.262 233.266 281.46 232.504 281.608C233.103 281.83 233.538 282.046 233.808 282.256C233.99 282.397 234.252 282.694 234.593 283.147C234.934 283.6 235.161 283.948 235.273 284.192L237.583 289.038L231.839 288.855L229.282 283.741C228.958 283.08 228.665 282.647 228.402 282.444C228.043 282.178 227.632 282.037 227.168 282.022L226.719 282.008L226.507 288.686L221.402 288.522ZM226.82 278.899L228.963 278.967C229.195 278.974 229.646 278.914 230.317 278.786C230.656 278.729 230.936 278.566 231.158 278.296C231.38 278.026 231.497 277.711 231.508 277.352C231.525 276.821 231.37 276.408 231.042 276.113C230.714 275.818 230.087 275.656 229.159 275.626L226.926 275.555L226.82 278.899Z" fill="white"/>
<path d="M239.281 289.093L239.804 272.641L248.277 272.911C249.848 272.961 251.045 273.134 251.866 273.43C252.688 273.726 253.341 274.246 253.827 274.992C254.313 275.738 254.539 276.635 254.505 277.682C254.476 278.595 254.256 279.376 253.846 280.026C253.435 280.676 252.883 281.196 252.189 281.585C251.747 281.833 251.145 282.031 250.383 282.179C250.982 282.401 251.417 282.617 251.687 282.827C251.87 282.968 252.131 283.265 252.473 283.718C252.814 284.171 253.041 284.519 253.153 284.763L255.463 289.609L249.718 289.426L247.161 284.312C246.838 283.651 246.544 283.218 246.281 283.015C245.922 282.749 245.511 282.608 245.047 282.593L244.598 282.579L244.386 289.256L239.281 289.093ZM244.699 279.47L246.842 279.538C247.074 279.545 247.525 279.485 248.196 279.356C248.535 279.299 248.815 279.136 249.037 278.866C249.259 278.596 249.376 278.281 249.387 277.922C249.404 277.391 249.249 276.978 248.921 276.683C248.593 276.388 247.965 276.226 247.038 276.196L244.805 276.125L244.699 279.47Z" fill="white"/>
<path d="M256.32 281.41C256.406 278.724 257.22 276.657 258.764 275.208C260.308 273.76 262.415 273.078 265.086 273.163C267.824 273.25 269.911 274.052 271.345 275.569C272.78 277.086 273.455 279.169 273.371 281.818C273.31 283.741 272.936 285.308 272.25 286.518C271.563 287.728 270.598 288.656 269.353 289.302C268.108 289.948 266.573 290.241 264.747 290.183C262.892 290.124 261.366 289.78 260.169 289.15C258.972 288.52 258.016 287.554 257.301 286.25C256.586 284.946 256.259 283.333 256.32 281.41ZM261.403 281.594C261.35 283.255 261.621 284.458 262.215 285.203C262.809 285.948 263.637 286.338 264.7 286.372C265.792 286.407 266.649 286.078 267.27 285.387C267.891 284.695 268.231 283.429 268.29 281.588C268.339 280.04 268.063 278.898 267.461 278.164C266.859 277.429 266.023 277.045 264.953 277.011C263.928 276.978 263.093 277.315 262.449 278.021C261.805 278.727 261.456 279.918 261.403 281.594Z" fill="white"/>
<path d="M275.91 290.257L276.433 273.805L284.906 274.075C286.477 274.125 287.674 274.298 288.495 274.594C289.317 274.89 289.97 275.41 290.456 276.156C290.942 276.902 291.168 277.799 291.134 278.846C291.105 279.759 290.885 280.54 290.475 281.19C290.065 281.84 289.512 282.36 288.818 282.749C288.375 282.997 287.773 283.195 287.012 283.343C287.611 283.565 288.046 283.781 288.316 283.991C288.498 284.132 288.76 284.429 289.101 284.882C289.442 285.335 289.669 285.683 289.781 285.927L292.091 290.773L286.347 290.59L283.79 285.476C283.466 284.815 283.173 284.382 282.91 284.179C282.551 283.913 282.14 283.772 281.676 283.757L281.227 283.743L281.015 290.42L275.91 290.257ZM281.328 280.634L283.471 280.702C283.703 280.709 284.154 280.649 284.825 280.52C285.164 280.463 285.444 280.3 285.666 280.03C285.888 279.76 286.005 279.445 286.016 279.086C286.033 278.555 285.878 278.142 285.55 277.847C285.222 277.552 284.595 277.39 283.667 277.36L281.434 277.289L281.328 280.634Z" fill="white"/>
<path d="M283.999 318.206C283.643 318.206 283.289 318.062 283.029 317.779L274.468 308.41L265.231 316.849C264.696 317.339 263.866 317.3 263.377 316.766L254.816 307.397L245.579 315.836C245.044 316.325 244.213 316.287 243.725 315.753L235.164 306.384L225.927 314.824C225.671 315.059 225.325 315.182 224.983 315.167C224.635 315.151 224.308 314.998 224.073 314.741L215.512 305.372L206.275 313.811C205.74 314.3 204.91 314.261 204.421 313.728C203.932 313.193 203.97 312.362 204.505 311.873L214.71 302.548C215.245 302.057 216.075 302.096 216.565 302.631L225.126 312L234.363 303.56C234.619 303.325 234.964 303.203 235.307 303.217C235.655 303.233 235.982 303.386 236.217 303.643L244.778 313.012L254.015 304.573C254.549 304.083 255.38 304.121 255.869 304.656L264.43 314.025L273.667 305.586C274.202 305.095 275.032 305.133 275.522 305.669L284.968 316.007C285.457 316.542 285.419 317.373 284.884 317.862C284.632 318.093 284.315 318.206 283.999 318.206Z" fill="white"/>
<path d="M125.751 359.716L119.493 356.731L113.91 329.564L116.94 326.227L125.751 359.716Z" fill="#FBC02D"/>
<path d="M125.752 359.716L134.057 354.864L126.937 332.481L116.941 326.227L125.752 359.716Z" fill="#FBC02D"/>
<path opacity="0.2" d="M125.752 359.716L134.057 354.864L126.937 332.481L116.941 326.227L125.752 359.716Z" fill="#6B6B6B"/>
<path d="M261.948 364.655C261.712 364.655 261.481 364.651 261.257 364.645C258.497 364.569 256.32 362.27 256.396 359.509C256.472 356.75 258.752 354.58 261.531 354.649C269.234 354.901 285.537 350.169 294.85 341.128C295.426 340.569 296.127 340.157 296.896 339.927C312.684 335.189 318.56 344.761 318.803 345.171L310.196 350.261C310.196 350.261 310.229 350.33 310.311 350.444C310.215 350.312 307.98 347.405 300.859 349.204C289.172 359.872 271.232 364.655 261.948 364.655Z" fill="#7B7B7B"/>
<path d="M261.396 371.302L243.183 370.154L241.746 336.578L266.223 337.493L261.396 371.302Z" fill="#FBC02D"/>
<path d="M261.395 371.301L265.652 367.064L268.291 346.128L266.222 337.492L261.395 371.301Z" fill="#FBC02D"/>
<path opacity="0.2" d="M261.395 371.301L265.652 367.064L268.291 346.128L266.222 337.492L261.395 371.301Z" fill="#6B6B6B"/>
<path d="M366.913 358.584C366.281 358.584 365.643 358.385 365.1 357.973C354.705 350.073 340.655 336.047 335.263 322.516C335.184 322.319 335.127 322.113 335.092 321.903C332.463 306.27 329.951 273.362 329.845 271.968C329.72 270.317 330.957 268.875 332.609 268.75C334.256 268.629 335.702 269.862 335.827 271.515C335.853 271.851 338.39 305.081 340.955 320.588C346.333 333.744 360.912 347.254 368.73 353.195C370.049 354.198 370.306 356.08 369.303 357.399C368.714 358.176 367.819 358.584 366.913 358.584Z" fill="#7B7B7B"/>
<path d="M380.778 360.102C378.459 360.102 375.829 359.05 372.964 356.977C371.622 356.005 371.321 354.13 372.293 352.788C373.265 351.446 375.14 351.145 376.482 352.116C378.959 353.909 380.312 354.102 380.779 354.102C382.436 354.102 383.779 355.445 383.779 357.102C383.778 358.759 382.435 360.102 380.778 360.102Z" fill="#7B7B7B"/>
<path d="M373.805 356.892C377.015 347.357 390.175 349.241 394.707 350.657C399.239 352.073 403.322 353.855 405.777 355.46C408.232 357.065 408.271 359.745 404.998 361.276C400.962 363.164 390.837 361.489 390.837 361.489C396.078 363.784 390.827 367.461 381.632 363.849C378.638 362.673 372.672 360.386 373.805 356.892Z" fill="#FBC02D"/>
<path d="M341.864 276.083C340.673 284.185 333.964 290.159 328.506 289.357C323.048 288.555 322.821 281.319 324.012 273.217C325.203 265.115 327.361 259.216 332.819 260.018C338.277 260.821 343.055 267.982 341.864 276.083Z" fill="#7B7B7B"/>
<path d="M209.878 243.743C210.33 243.743 210.697 243.377 210.697 242.924C210.697 242.472 210.33 242.105 209.878 242.105C209.425 242.105 209.059 242.472 209.059 242.924C209.059 243.377 209.425 243.743 209.878 243.743Z" fill="#7B7B7B"/>
<path d="M218.209 248.827C218.209 249.279 217.842 249.646 217.39 249.646C216.938 249.646 216.57 249.279 216.57 248.827C216.57 248.374 216.937 248.008 217.39 248.008C217.843 248.008 218.209 248.374 218.209 248.827Z" fill="#7B7B7B"/>
<path d="M219.127 345.733C219.127 346.186 218.76 346.552 218.308 346.552C217.855 346.552 217.488 346.185 217.488 345.733C217.488 345.28 217.855 344.914 218.308 344.914C218.76 344.913 219.127 345.28 219.127 345.733Z" fill="#7B7B7B"/>
<path d="M226.639 351.635C226.639 352.088 226.272 352.454 225.819 352.454C225.367 352.454 225 352.087 225 351.635C225 351.182 225.367 350.816 225.819 350.816C226.272 350.815 226.639 351.182 226.639 351.635Z" fill="#7B7B7B"/>
<path d="M82.5119 361.467C80.1319 361.467 76.9139 360.025 75.1789 357.518C75.0219 357.291 75.0779 356.98 75.3049 356.823C75.5319 356.665 75.8429 356.722 76.0009 356.95C77.8669 359.644 81.9799 361.081 83.8059 360.23C83.9979 360.14 84.1539 360.027 84.2729 359.891C82.6409 359.137 81.1489 357.661 80.7469 355.409C80.5199 354.142 80.3399 352.429 81.3859 352.192C82.8199 351.87 84.6959 355.338 85.4179 357.967C85.5519 358.453 85.5939 358.904 85.5479 359.31C86.1799 359.483 86.8019 359.528 87.3349 359.451C87.7679 359.388 88.3829 359.21 88.7099 358.706C87.4949 357.885 86.6779 356.437 86.4049 354.517C86.0169 351.783 86.3079 351.306 86.6109 351.073C86.8079 350.922 87.0579 350.893 87.2989 350.995C88.3679 351.45 89.6639 355.329 89.9119 357.524C89.9389 357.766 89.9389 357.998 89.9149 358.217C90.3239 358.38 90.7749 358.469 91.2639 358.479C92.1309 358.529 92.9879 358.253 93.6739 357.85C93.5319 357.761 93.3979 357.662 93.2719 357.555C92.2339 356.668 91.8159 355.251 91.9919 353.224C92.1279 351.657 92.4849 350.8 93.1149 350.531C93.3359 350.433 93.7859 350.342 94.3229 350.77C95.4029 351.633 96.4109 354.368 96.0489 356.327C95.9739 356.732 95.7989 357.121 95.5469 357.478C97.3819 357.794 99.9639 357.279 102.191 356.729C102.458 356.664 102.73 356.826 102.796 357.094C102.862 357.363 102.699 357.633 102.431 357.699C99.7209 358.369 96.8039 358.914 94.7429 358.316C93.8269 359.045 92.5369 359.487 91.2449 359.478C90.6559 359.466 90.1069 359.361 89.6059 359.17C89.2119 359.841 88.4789 360.295 87.4819 360.441C86.8179 360.54 86.0359 360.476 85.2439 360.25C85.0189 360.625 84.6789 360.926 84.2309 361.136C83.7509 361.358 83.1629 361.466 82.5119 361.467ZM81.6479 353.19C81.5899 353.343 81.4849 353.849 81.7329 355.234C82.0619 357.074 83.2529 358.297 84.5719 358.942C84.5659 358.729 84.5269 358.493 84.4559 358.234C83.6699 355.375 82.1769 353.405 81.6479 353.19ZM87.2189 352.318C87.2129 352.694 87.2469 353.326 87.3959 354.377C87.5989 355.805 88.1249 356.901 88.9149 357.6C88.6809 355.591 87.7899 353.266 87.2189 352.318ZM93.5099 351.449H93.5079C93.5059 351.45 93.1329 351.639 92.9869 353.309C92.8409 354.992 93.1469 356.132 93.9209 356.793C94.0969 356.943 94.2969 357.069 94.5199 357.172C94.8029 356.859 94.9959 356.509 95.0629 356.144C95.3309 354.695 94.6409 352.573 93.8669 351.714C93.6669 351.491 93.5379 351.449 93.5099 351.449Z" fill="#7B7B7B"/>
<path d="M228.874 369.025L231.584 364.325L228.874 359.625H225.973L227.612 364.325L225.973 369.025H228.874Z" fill="#7B7B7B"/>
<path d="M226.162 366.773C224.812 366.773 223.712 365.673 223.712 364.323C223.712 362.973 224.812 361.883 226.162 361.883L221.554 360.961L220.332 364.682L222.388 367.821L226.162 366.773Z" fill="#7B7B7B"/>
<path d="M226.558 359.625H221.128L218.418 364.325L221.128 369.025H226.558L229.268 364.325L226.558 359.625ZM223.848 366.775C222.498 366.775 221.398 365.675 221.398 364.325C221.398 362.975 222.498 361.885 223.848 361.885C225.198 361.885 226.288 362.975 226.288 364.325C226.288 365.675 225.198 366.775 223.848 366.775Z" fill="#FBC02D"/>
<path d="M417.891 359.313L415.879 355.822L417.891 352.332H420.046L418.829 355.823L420.046 359.313H417.891Z" fill="#FBC02D"/>
<path d="M419.902 357.641C420.905 357.641 421.722 356.824 421.722 355.821C421.722 354.819 420.905 354.009 419.902 354.009L423.324 353.324L424.232 356.088L422.705 358.419L419.902 357.641Z" fill="#FBC02D"/>
<path d="M419.611 352.332H423.644L425.657 355.822L423.644 359.313H419.611L417.598 355.822L419.611 352.332ZM421.624 357.642C422.627 357.642 423.444 356.825 423.444 355.822C423.444 354.82 422.627 354.01 421.624 354.01C420.621 354.01 419.812 354.82 419.812 355.822C419.811 356.825 420.621 357.642 421.624 357.642Z" fill="#7B7B7B"/>
<path d="M342.948 363.946H347.466C348.642 363.946 349.605 362.984 349.605 361.807C349.605 360.631 348.642 359.668 347.466 359.668H342.948C341.771 359.668 340.809 360.631 340.809 361.807C340.809 362.984 341.771 363.946 342.948 363.946Z" fill="#7B7B7B"/>
<path d="M335.73 359.911C336.846 357.545 339.55 356.476 341.772 357.523C343.993 358.57 344.889 361.337 343.774 363.703C342.659 366.069 339.954 367.138 337.733 366.091C335.51 365.044 334.614 362.277 335.73 359.911Z" fill="#FBC02D"/>
<path d="M337.003 366.072L338.242 366.656L342.551 357.519L341.312 356.935L337.003 366.072Z" fill="#7B7B7B"/>
</svg>
