<svg width="42" height="42" viewBox="0 0 42 42" fill="none" xmlns="http://www.w3.org/2000/svg">
<rect width="42" height="42" rx="8" fill="#F5F5F5"/>
<path d="M13.5566 8.25C13.5566 7.83579 13.7703 7.5 14.0339 7.5C14.2975 7.5 14.5112 7.83579 14.5112 8.25V12.75C14.5112 13.1642 14.2975 13.5 14.0339 13.5C13.7703 13.5 13.5566 13.1642 13.5566 12.75V8.25Z" fill="#7B7B7B"/>
<path d="M25.0117 8.25C25.0117 7.83579 25.2254 7.5 25.489 7.5C25.7526 7.5 25.9663 7.83579 25.9663 8.25V12.75C25.9663 13.1642 25.7526 13.5 25.489 13.5C25.2254 13.5 25.0117 13.1642 25.0117 12.75V8.25Z" fill="#7B7B7B"/>
<path fill-rule="evenodd" clip-rule="evenodd" d="M15.2262 21.5H13.3171V23.5H15.2262V21.5ZM13.7944 21C12.8398 21 12.8398 21 12.8398 22V23C12.8398 23.8284 12.8398 24 13.7944 24H14.9876C15.7784 24 15.7035 23.8284 15.7035 23V22C15.7035 21 15.7035 21 14.7489 21H13.7944Z" fill="#7B7B7B"/>
<path fill-rule="evenodd" clip-rule="evenodd" d="M20.9547 21.5H19.0456V23.5H20.9547V21.5ZM19.5229 21C18.5684 21 18.5684 21 18.5684 22V23C18.5684 23.8284 18.5684 24 19.5229 24H20.7161C21.5069 24 21.432 23.8284 21.432 23V22C21.432 21 21.432 21 20.4775 21H19.5229Z" fill="#7B7B7B"/>
<path fill-rule="evenodd" clip-rule="evenodd" d="M26.6813 21.5H24.7722V23.5H26.6813V21.5ZM25.2495 21C24.2949 21 24.2949 21 24.2949 22V23C24.2949 23.8284 24.2949 24 25.2495 24L24.7722 23.5C25.563 23.5 27.1586 23.3284 27.1586 22.5V22C27.1586 21 27.1586 21 26.204 21H25.2495Z" fill="#7B7B7B"/>
<path fill-rule="evenodd" clip-rule="evenodd" d="M15.2262 27.5H13.3171V29.5H15.2262V27.5ZM13.7944 27C12.8398 27 12.8398 27 12.8398 28V29C12.8398 29.8284 12.8398 30 13.7944 30H14.9876C15.7784 30 15.7035 29.8284 15.7035 29V28C15.7035 27 15.7035 27 14.7489 27H13.7944Z" fill="#7B7B7B"/>
<path fill-rule="evenodd" clip-rule="evenodd" d="M20.9547 27.5H19.0456V29.5H20.9547V27.5ZM19.5229 27C18.5684 27 18.5684 27 18.5684 28V29C18.5684 29.8284 18.5684 30 19.5229 30H20.7161C21.5069 30 21.432 29.8284 21.432 29V28C21.432 27 21.432 27 20.4775 27H19.5229Z" fill="#7B7B7B"/>
<path fill-rule="evenodd" clip-rule="evenodd" d="M11.4086 11.5H28.5904C29.3812 11.5 30.4995 12.6716 30.4995 13.5V23.6974C30.9939 23.6974 30.9964 23.5741 31.454 23.6974V13.5C31.454 11.8431 30.1719 10.5 28.5904 10.5H11.4086C9.82701 10.5 8.54492 11.8431 8.54492 13.5V31.5C8.54492 33.1568 9.82701 34.5 11.4086 34.5H28.1131C27.8567 34.0357 29.1984 34.0321 29.0676 33.5H11.4086C10.6178 33.5 9.49947 32.3284 9.49947 31.5V13.5C9.49947 12.6716 10.6178 11.5 11.4086 11.5Z" fill="#7B7B7B"/>
<path fill-rule="evenodd" clip-rule="evenodd" d="M30.739 18.5002H20.0004H9.26172V17.5002L30.739 17.5V18.5002Z" fill="#7B7B7B"/>
<path fill-rule="evenodd" clip-rule="evenodd" d="M28.3526 33.3638C30.8238 33.3638 33.1719 30.8388 33.1719 28.25C33.1719 25.6612 30.8238 23.2938 28.3526 23.2938C25.8815 23.2938 23.5595 25.6612 23.5595 28.25C23.5595 30.8388 25.8815 33.3638 28.3526 33.3638ZM28.3526 34.5C31.6475 34.5 34.3185 31.7018 34.3185 28.25C34.3185 24.7982 31.6475 22 28.3526 22C25.0577 22 22.3867 24.7982 22.3867 28.25C22.3867 31.7018 25.0577 34.5 28.3526 34.5Z" fill="#7B7B7B"/>
<path fill-rule="evenodd" clip-rule="evenodd" d="M30.791 26.5493C30.9351 26.6716 30.9486 26.8831 30.8212 27.0224L28.1475 29.9233C28.1167 29.9568 28.0791 29.984 28.0371 30.0034C27.9951 30.0227 27.9494 30.0338 27.9029 30.0359C27.8563 30.038 27.8098 30.0312 27.766 30.0157C27.7223 30.0003 27.6822 29.9766 27.6482 29.9461L25.9045 28.384C25.8374 28.3234 25.7981 28.2397 25.7951 28.1512C25.7921 28.0628 25.8257 27.9769 25.8886 27.9122C25.9515 27.8475 26.0385 27.8093 26.1306 27.806C26.2227 27.8026 26.3124 27.8344 26.3802 27.8944L27.8634 29.2199L30.2999 26.5779C30.3303 26.5449 30.3672 26.518 30.4084 26.4987C30.4496 26.4794 30.4944 26.4681 30.5402 26.4655C30.586 26.4628 30.6319 26.4688 30.6752 26.4832C30.7186 26.4976 30.7585 26.5201 30.7928 26.5493H30.791Z" fill="#7B7B7B"/>
</svg>
