<svg width="13" height="13" viewBox="0 0 13 13" fill="none" xmlns="http://www.w3.org/2000/svg">
<path d="M9.51743 8.6926L12.0158 11.1904L11.1904 12.0158L8.6926 9.51743C7.7632 10.2625 6.60718 10.6677 5.41602 10.666C2.51802 10.666 0.166016 8.31402 0.166016 5.41602C0.166016 2.51802 2.51802 0.166016 5.41602 0.166016C8.31402 0.166016 10.666 2.51802 10.666 5.41602C10.6677 6.60718 10.2625 7.7632 9.51743 8.6926ZM8.34727 8.25977C9.08758 7.49845 9.50102 6.47793 9.49935 5.41602C9.49935 3.16027 7.67177 1.33268 5.41602 1.33268C3.16027 1.33268 1.33268 3.16027 1.33268 5.41602C1.33268 7.67177 3.16027 9.49935 5.41602 9.49935C6.47793 9.50102 7.49845 9.08758 8.25977 8.34727L8.34727 8.25977Z" fill="#7B7B7B"/>
</svg>
