<svg width="42" height="42" viewBox="0 0 42 42" fill="none" xmlns="http://www.w3.org/2000/svg">
<rect width="42" height="42" rx="8" fill="#F5F5F5"/>
<path d="M24.3509 19.1535C24.3167 19.107 24.2926 19.0547 24.2802 18.9996C24.2677 18.9445 24.267 18.8877 24.2782 18.8324C24.2894 18.777 24.3121 18.7243 24.3453 18.6771C24.3784 18.6299 24.4212 18.5893 24.4712 18.5575L32.2779 13.5945C32.3279 13.5627 32.3842 13.5404 32.4435 13.5288C32.5028 13.5172 32.5639 13.5165 32.6235 13.5269C32.6831 13.5373 32.7398 13.5585 32.7906 13.5892C32.8414 13.62 32.8851 13.6597 32.9193 13.7062C32.9535 13.7527 32.9776 13.8049 32.9901 13.86C33.0025 13.9151 33.0032 13.972 32.9921 14.0273C32.9809 14.0826 32.9581 14.1354 32.925 14.1826C32.8919 14.2297 32.8491 14.2704 32.7991 14.3022L24.9924 19.2652C24.9424 19.297 24.8861 19.3193 24.8268 19.3309C24.7675 19.3425 24.7063 19.3432 24.6467 19.3328C24.5872 19.3224 24.5304 19.3013 24.4796 19.2705C24.4289 19.2397 24.3851 19.2 24.3509 19.1535ZM32.9194 28.2729C32.8852 28.3194 32.8414 28.3592 32.7907 28.3899C32.7399 28.4207 32.6831 28.4419 32.6235 28.4523C32.564 28.4626 32.5028 28.462 32.4435 28.4504C32.3842 28.4388 32.3279 28.4165 32.2779 28.3846L21.4627 21.5091L15.9789 24.9954C16.4048 25.7638 16.5032 26.6532 16.2542 27.486C16.0052 28.3188 15.4273 29.0337 14.6358 29.4879C13.8443 29.9421 12.8976 30.1021 11.9846 29.936C11.0717 29.77 10.2598 29.29 9.71114 28.592C9.16243 27.8941 8.91731 27.0295 9.02472 26.1709C9.13213 25.3124 9.58418 24.523 10.2906 23.9606C10.997 23.3982 11.9057 23.1041 12.8353 23.1371C13.7648 23.17 14.6468 23.5275 15.3051 24.1383C15.3575 24.187 15.4076 24.2374 15.4565 24.2885L20.6456 20.9896L15.4565 17.6907C15.4076 17.7418 15.3575 17.7921 15.3051 17.8408C14.6491 18.4488 13.7704 18.8045 12.8446 18.8369C11.9187 18.8693 11.0137 18.5761 10.3104 18.0157C9.60699 17.4553 9.15696 16.6691 9.05012 15.814C8.94329 14.9588 9.1875 14.0977 9.73401 13.4026C10.2805 12.7074 11.0891 12.2293 11.9984 12.0638C12.9076 11.8983 13.8506 12.0575 14.639 12.5096C15.4274 12.9618 16.0033 13.6736 16.2517 14.503C16.5001 15.3323 16.4026 16.2182 15.9788 16.9838L21.7117 20.6283L21.7131 20.6292L32.7991 27.677C32.8491 27.7088 32.8919 27.7494 32.925 27.7966C32.9581 27.8437 32.9809 27.8965 32.9921 27.9518C33.0033 28.0072 33.0026 28.064 32.9901 28.1191C32.9776 28.1742 32.9536 28.2265 32.9194 28.2729ZM14.6524 17.2345C14.7723 17.1229 14.8811 17.0014 14.9773 16.8715C14.9781 16.8704 14.9786 16.869 14.9794 16.8679C14.9805 16.8664 14.9821 16.8652 14.9832 16.8637C15.3845 16.3169 15.5437 15.6476 15.4277 14.9946C15.3118 14.3417 14.9296 13.7553 14.3606 13.3573C13.7916 12.9593 13.0794 12.7802 12.372 12.8572C11.6646 12.9342 11.0163 13.2614 10.5618 13.7709C10.1072 14.2804 9.88133 14.933 9.93101 15.5932C9.98069 16.2533 10.3021 16.8704 10.8286 17.3161C11.355 17.7618 12.046 18.0021 12.7581 17.9869C13.4701 17.9717 14.1486 17.7022 14.6524 17.2345ZM15.4634 26.5639C15.4648 26.0479 15.2979 25.5437 14.9848 25.1176C14.9831 25.1154 14.9811 25.1135 14.9795 25.1112C14.9788 25.1103 14.9784 25.1092 14.9778 25.1083C14.8814 24.9781 14.7725 24.8564 14.6524 24.7446C14.2652 24.3848 13.7718 24.1398 13.2347 24.0405C12.6976 23.9412 12.1408 23.9922 11.6349 24.1869C11.1289 24.3816 10.6964 24.7114 10.3922 25.1344C10.0879 25.5575 9.92551 26.0549 9.92551 26.5638C9.9255 27.0726 10.0879 27.5701 10.3921 27.9931C10.6964 28.4162 11.1288 28.746 11.6348 28.9407C12.1407 29.1355 12.6975 29.1864 13.2346 29.0872C13.7717 28.9879 14.2651 28.7429 14.6524 28.3831C14.9103 28.1447 15.1148 27.8612 15.254 27.5489C15.3932 27.2367 15.4644 26.9018 15.4634 26.5639Z" fill="#7B7B7B"/>
</svg>
