<svg width="20" height="48" viewBox="0 0 20 48" fill="none" xmlns="http://www.w3.org/2000/svg">
<path d="M3.83333 33.1035V32.6035H3.33333C2.58078 32.6035 1.85973 32.3065 1.32864 31.7791C0.797665 31.2518 0.5 30.5373 0.5 29.7931V19.8621C0.5 18.6789 0.973259 17.5434 1.81679 16.7057C2.66044 15.8679 3.80541 15.3966 5 15.3966H15C16.1946 15.3966 17.3396 15.8679 18.1832 16.7057C19.0267 17.5434 19.5 18.6789 19.5 19.8621V29.7931C19.5 30.5373 19.2023 31.2518 18.6714 31.7791C18.1403 32.3065 17.4192 32.6035 16.6667 32.6035H16.1667V33.1035V44.6897C16.1667 45.4339 15.869 46.1483 15.338 46.6756C14.8069 47.2031 14.0859 47.5 13.3333 47.5H6.66667C5.91411 47.5 5.19306 47.2031 4.66197 46.6756C4.131 46.1483 3.83333 45.4339 3.83333 44.6897V33.1035ZM3.33333 30.2931H6.16667V44.6897V45.1897H6.66667H13.3333H13.8333V44.6897V30.2931H16.6667H17.1667V29.7931V19.8775C17.1833 19.5907 17.1392 19.3036 17.0374 19.0347C16.9335 18.7603 16.7719 18.5113 16.5635 18.3044C16.3552 18.0975 16.105 17.9374 15.8297 17.8347L15.6548 18.3031L15.8297 17.8347C15.56 17.7339 15.2721 17.6904 14.9847 17.7069H5.01528C4.72785 17.6904 4.44001 17.7339 4.17025 17.8347L4.34517 18.3031L4.17025 17.8347C3.89501 17.9374 3.64479 18.0975 3.43645 18.3044C3.22811 18.5113 3.06647 18.7603 2.96256 19.0347L3.43016 19.2118L2.96256 19.0347C2.86075 19.3036 2.81673 19.5907 2.83333 19.8775V29.7931V30.2931H3.33333ZM10 12.7414C8.77958 12.7414 7.58685 12.382 6.57266 11.709C5.5585 11.036 4.76859 10.0799 4.30227 8.96185C3.83597 7.84386 3.71402 6.61387 3.95169 5.42726C4.18937 4.24062 4.77612 3.15015 5.63828 2.29393C6.50048 1.43768 7.59942 0.854171 8.7963 0.617739C9.99319 0.381303 11.2338 0.502681 12.361 0.966378C13.4882 1.43006 14.4511 2.21505 15.1283 3.22155C15.8054 4.228 16.1667 5.41091 16.1667 6.62069C16.1667 8.24288 15.5178 9.79933 14.3617 10.9475C13.2055 12.0957 11.6366 12.7414 10 12.7414ZM10 2.81035C9.24261 2.81035 8.50194 3.03338 7.87164 3.45162C7.24131 3.86989 6.74949 4.46476 6.45893 5.1614C6.16835 5.85808 6.09227 6.62489 6.24045 7.36471C6.38863 8.1045 6.75429 8.78358 7.29065 9.31623C7.82697 9.84886 8.50987 10.2112 9.2528 10.358C9.99572 10.5047 10.7658 10.4294 11.4658 10.1415C12.1659 9.85349 12.7648 9.36559 13.1864 8.73893C13.6081 8.11224 13.8333 7.37508 13.8333 6.62069C13.8333 5.609 13.4286 4.63946 12.7093 3.92515C11.9902 3.21096 11.0156 2.81035 10 2.81035Z" fill="#A6A6A6" stroke="white"/>
</svg>
