<svg width="33" height="48" viewBox="0 0 33 48" fill="none" xmlns="http://www.w3.org/2000/svg">
<path d="M12.4994 22.3574C6.5256 20.7892 4.28516 14.5166 4.28516 10.5959C4.28516 6.67569 4.28516 5.10742 4.28516 5.10742" stroke="#A6A6A6" stroke-miterlimit="10" stroke-linecap="round" stroke-linejoin="round"/>
<path d="M4.28516 42.8926C4.28516 42.8926 4.28516 41.3243 4.28516 37.4041C4.28516 33.4839 6.5256 27.2108 12.4994 25.6426" stroke="#A6A6A6" stroke-miterlimit="10" stroke-linecap="round" stroke-linejoin="round"/>
<path d="M12.5 25.6431C13.3214 25.4201 14.1429 24.9084 14.1429 24.0003C14.1429 23.093 13.3214 22.5804 12.5 22.3574" stroke="#A6A6A6" stroke-miterlimit="10" stroke-linecap="round" stroke-linejoin="round"/>
<path d="M20.7148 22.3574C26.6887 20.7892 28.9291 14.5166 28.9291 10.5959C28.9291 6.67569 28.9291 5.10742 28.9291 5.10742" stroke="#A6A6A6" stroke-miterlimit="10" stroke-linecap="round" stroke-linejoin="round"/>
<path d="M28.9291 42.8926C28.9291 42.8926 28.9291 41.3243 28.9291 37.4041C28.9291 33.4839 26.6887 27.2108 20.7148 25.6426" stroke="#A6A6A6" stroke-miterlimit="10" stroke-linecap="round" stroke-linejoin="round"/>
<path d="M20.7151 25.6431C19.8937 25.4201 19.0723 24.9084 19.0723 24.0003C19.0723 23.093 19.8937 22.5804 20.7151 22.3574" stroke="#A6A6A6" stroke-miterlimit="10" stroke-linecap="round" stroke-linejoin="round"/>
<path d="M32.2143 3.46429C32.2143 4.36794 31.4747 5.10714 30.5714 5.10714H2.64286C1.73961 5.10714 1 4.36794 1 3.46429V2.64286C1 1.7392 1.73961 1 2.64286 1H30.5714C31.4747 1 32.2143 1.7392 32.2143 2.64286V3.46429Z" stroke="#A6A6A6" stroke-miterlimit="10" stroke-linecap="round" stroke-linejoin="round"/>
<path d="M32.2143 45.3569C32.2143 46.2601 31.4747 46.9997 30.5714 46.9997H2.64286C1.73961 46.9997 1 46.2601 1 45.3569V44.5354C1 43.6322 1.73961 42.8926 2.64286 42.8926H30.5714C31.4747 42.8926 32.2143 43.6322 32.2143 44.5354V45.3569Z" stroke="#A6A6A6" stroke-miterlimit="10" stroke-linecap="round" stroke-linejoin="round"/>
<path d="M10.8574 29.75H22.3574" stroke="#A6A6A6" stroke-miterlimit="10" stroke-linecap="round" stroke-linejoin="round"/>
</svg>
